<?xml version="1.0" encoding="utf-8"?>
<!-- Generator: Adobe Illustrator 25.2.3, SVG Export Plug-In . SVG Version: 6.00 Build 0)  -->
<svg version="1.1" id="Capa_1" xmlns="http://www.w3.org/2000/svg" xmlns:xlink="http://www.w3.org/1999/xlink" x="0px" y="0px"
	 viewBox="0 0 2761 991" style="enable-background:new 0 0 2761 991;" xml:space="preserve">
<g id="dribbble">
	<g id="Shape" transform="translate(275.000000, 226.000000)">
		<path d="M676.2,216.9c25.3,0,45.8-20.5,45.8-45.7c0-25.3-20.5-45.7-45.8-45.7s-45.8,20.5-45.8,45.7
			C630.4,196.4,650.9,216.9,676.2,216.9z M2187.6,373.1c-7-4.9-12.3-5.7-16.8,3.8c-76.9,166.3-206.5,83.3-193.7,90.6
			c28.8-13.1,104.4-73.7,92.9-157.3c-6.9-51.1-50.9-73.8-97.5-65.6c-81.4,14.2-111.3,101.8-96.1,179.4c2.7,13.3,7.4,24.3,12.2,35.1
			c-92,74.7-128.5-66.8-132.6-83.8c-0.2-0.9,71-60.1,90.8-201.3c20.7-147.9-26.5-174.9-74.8-174c-89.4,1.6-113.6,188.1-81.1,343.6
			c-2.7,0.7-15.4,7.7-35.7,8.5c-14.6-46-77.2-86.3-93.5-70.7c-41,38.8,9.9,114.8,45.7,120.7c-21.5,132.3-156,99.5-131-66.2
			c43.8-81.2,77.1-202,71.2-274.9c-2.1-25.8-21.2-60.4-64.4-58.7c-83.1,3.3-92.2,189.9-82.4,322.4c-0.5-3.3-5.1,16.1-39.2,25.7
			c-8.1-44.7-80.1-89.5-97-67.9c-31.7,40.3,23.3,112.3,49.3,117.3c-21.5,132.3-156,99.5-131-66.2c43.8-81.2,77.1-202,71.2-274.9
			c-2.1-25.8-21.2-60.4-64.4-58.7c-83.1,3.3-92.2,189.9-82.4,322.4c-0.5-3.3-5.2,16.7-40.7,26.1c-1.2-57.9-73.5-84.5-90.8-66
			c-30.9,33,7.1,100.6,42.3,117.3c-21.5,132.3-156,99.5-131-66.2c43.8-81.2,77.1-202,71.2-274.9C956,32.9,936.9-1.6,893.7,0.1
			c-83.1,3.3-89.8,199.3-80.1,331.7c-27.4,117.1-119.2,263.4-107.3-29.6c1.2-20.6,2.5-28.4-7.8-36.1c-7.7-6-25.2-3.1-34.7-2.9
			c-11.6,0.5-14.5,7.3-17.1,17.5c-6,26.5-7.1,52.2-7.9,87.2c-0.6,16.4-1.9,24-8.2,46.4c-6.3,22.3-42.3,63.2-62.1,56.4
			c-27.4-9.4-18.4-86.5-13.3-139.5c4.3-41.9-9.4-60.7-44.5-67.5c-20.5-4.3-33-3.6-54.4-10.3c-20.2-6.4-24.8-44.5-67.9-31.8
			c-23.6,7-8.4,56.8-14.1,93.8c-27.9,181.9-85.8,186.9-112.7,98.5c121.1-296.2,35-413-15.4-413C193.8,0.9,133.8,37,159.2,268
			c-12.4-3.6-16.2-5.5-29.7-5.5C53.1,262.4,1,324.2,1,400.3s52.1,137.9,128.6,137.9c45.1,0,76.8-20.5,100.9-52.2
			c15.7,22.4,34.7,52.6,69.6,51.2c104-4,134.2-217,137.8-228.9c11.1,1.7,21.6,4.9,31.9,6.7c17.1,2.6,18.3,9.3,18,26.5
			C483.1,486.3,509.9,537,570.6,537c33.8,0,64-33.2,84.7-56.9c15.5,32,40.2,55.9,73.4,56.9c80.4,2,111.1-125.9,108.3-109.1
			c-2.2,13.2,26.1,108.3,108.8,108.7c102.5,0.4,121.5-112.1,123.8-130.9c0.3-3.7,0.4-3.4,0,0l-0.1,1.1c32.5-6,49.3-23.5,49.3-23.5
			s26.1,155,122.9,153.3c100.5-1.8,119.4-103.5,121.9-123.4c0.3-4.7,0.5-4.2,0,0c0,0.2,0,0.4,0,0.6c38.6-14,48.8-28.1,48.8-28.1
			s20.8,151.9,122.9,153.2c91,1.2,124.7-91.9,124.9-130.8c15.3,0.2,43.7-9.1,43.1-9.6c0,0,33.3,132.8,126.4,139.6
			c43.7,3.2,76.5-24.6,95.2-37.2c43.9,35.5,190.2,80.9,282.5-75.5C2220.6,403.1,2192.6,376.6,2187.6,373.1z M125.9,486.6
			c-44.6,0-73.2-41.2-73.2-85.6c0-44.4,26.3-85.6,70.9-85.6c20.1,0,31.3,2.2,46.9,15.8c2.8,11.2,10.9,36.9,14.8,48.6
			c5.2,15.6,11.5,29,17.8,43.4C194,460.4,164.6,486.6,125.9,486.6z M234.6,332.5c-1.9-3-1.5-1.1-3.5-3.9
			c-8.2-22.2-23.9-71.8-25.8-128.1c-2.1-63.7,8.6-138.4,39.9-138.4C266.5,62.1,289.1,213.4,234.6,332.5L234.6,332.5z M862.9,266.1
			c-5-37.8-5.3-206.4,35.2-201.7C920.5,73.5,884,232.5,862.9,266.1z M1158.8,266.1c-5-37.8-5.3-206.4,35.2-201.7
			C1216.5,73.5,1179.9,232.5,1158.8,266.1z M1452.4,268.5c-5-37.8-5.3-206.4,35.2-201.7C1510,75.8,1473.5,234.8,1452.4,268.5z
			 M1776.5,54.5c37.1-3.8,35.5,157.7-38.8,259.7C1728.1,277.4,1713.4,67.2,1776.5,54.5L1776.5,54.5z M1932.3,402.2
			c-11.9-60,18.8-99.4,50.5-103.8c11.1-1.8,27.1,5.4,30.3,18.8c5.3,25.3-0.8,62.7-71.7,110.2
			C1941.6,427.8,1934.9,415.5,1932.3,402.2L1932.3,402.2z"/>
	</g>
</g>
</svg>
