<?xml version="1.0" encoding="utf-8"?>
<!-- Generator: Adobe Illustrator 25.2.3, SVG Export Plug-In . SVG Version: 6.00 Build 0)  -->
<svg version="1.1" id="Capa_1" xmlns="http://www.w3.org/2000/svg" xmlns:xlink="http://www.w3.org/1999/xlink" x="0px" y="0px"
	 viewBox="0 0 2761 991" style="enable-background:new 0 0 2761 991;" xml:space="preserve">
<g id="netflix">
	<g id="Shape" transform="translate(307.000000, 204.000000)">
		<path d="M1833.6,545c29.9,2.9,59.8,6,89.6,9.2l65.9-162.4l62.6,177.4c32.1,4,64.2,8.2,96.2,12.6l-109.7-311.1L2148,0h-93l-1,1.3
			l-59.3,146.3L1942.7,0h-91.8l94.8,268.6L1833.6,545L1833.6,545z M1764.2,538.6V0h-91.8v531.1C1703,533.4,1733.7,536,1764.2,538.6
			L1764.2,538.6z M1074.8,508.5c24.8,0,49.5,0.2,74.2,0.4V311h110.2v-84.3h-110.2V84.4h127V0h-219.1v508.6
			C1062.9,508.6,1068.9,508.5,1074.8,508.5z M789.9,513.7c30.6-1.1,61.2-2,91.8-2.7V84.4h85.8V0H704.1v84.4h85.8L789.9,513.7
			L789.9,513.7z M88,570.5V249.6l108.7,307.9c33.4-3.7,66.9-7.3,100.4-10.6V0h-88.1v332.4L91.8,0H0v582h0.6
			C29.6,578,58.8,574.2,88,570.5z M615.6,84.4V0H396.5v537.8c72.9-6.3,145.9-11.6,218.9-15.8v-84.4c-42.4,2.5-84.6,5.3-126.8,8.4
			V311.1h110.2v-84.3H488.6V84.4H615.6z M1457.9,433.5V0h-92.2v514c73.3,2.7,146.4,6.4,219.1,11.2v-84.5
			C1542.6,437.9,1500.3,435.6,1457.9,433.5L1457.9,433.5z"/>
	</g>
</g>
</svg>
