<?xml version="1.0" encoding="utf-8"?>
<!-- Generator: Adobe Illustrator 25.2.3, SVG Export Plug-In . SVG Version: 6.00 Build 0)  -->
<svg version="1.1" id="Capa_1" xmlns="http://www.w3.org/2000/svg" xmlns:xlink="http://www.w3.org/1999/xlink" x="0px" y="0px"
	 viewBox="0 0 2761 991" style="enable-background:new 0 0 2761 991;" xml:space="preserve">
<g id="coinbase">
	<g id="Shape" transform="translate(170.000000, 233.000000)">
		<path d="M156.6,526C77.4,526,0,469,0,340.5c0-129,77.4-185.1,156.6-185.1c38.9,0,69.5,10.1,91.3,24.3L224,232
			c-14.7-10.5-36.4-17.2-58.2-17.2c-47.7,0-91.3,37.7-91.3,124.8s44.8,125.6,91.3,125.6c21.8,0,43.5-6.7,58.2-17.2l23.9,53.6
			C225.2,516.8,195.5,526,156.6,526z M429.1,526c-100.9,0-156.6-80-156.6-185.5s55.3-185.1,156.6-185.1
			c100.9,0,156.6,79.2,156.6,185.1C585.6,446,530,526,429.1,526z M429.1,212.7c-56.1,0-83.7,50.3-83.7,126.9S373,467,429.1,467
			s83.7-50.7,83.7-127.3S485.2,212.7,429.1,212.7z M682.7,98c-23.9,0-43.1-18.4-43.1-41s19.3-41,43.1-41s43.1,18.4,43.1,41
			S706.2,98,682.7,98z M646.3,162.5h72.8v356h-72.8V162.5z M1004.7,518.5V281c0-41.5-25.1-67.4-74.5-67.4
			c-26.4,0-50.7,4.6-65.3,10.5v294.8h-72V180.5c35.6-14.7,81.2-25.1,136.9-25.1c99.6,0,147.8,43.6,147.8,118.9v244.6h-72.8V518.5z
			 M1268.8,526c-46,0-91.7-11.3-119.7-25.1V0h72v171.7c17.2-8,44.8-14.7,69.5-14.7c91.7,0,154,66.2,154,175.1
			C1444.6,466.5,1375.1,526,1268.8,526z M1278,213.6c-19.7,0-43.1,4.6-56.9,11.7V459c10.5,4.6,31,9.2,51.5,9.2
			c57.3,0,99.6-39.8,99.6-130.7C1372.6,259.6,1335.8,213.6,1278,213.6z M1640.5,526c-102.1,0-154-41.5-154-111.8
			c0-99.3,105.5-116.8,213.1-122.7v-22.6c0-44.8-29.7-60.7-75.3-60.7c-33.5,0-74.5,10.5-98.4,21.8l-18.4-49.4
			c28.5-12.6,76.6-25.1,124.3-25.1c85,0,136.9,33.1,136.9,121v224.5C1743.1,514.7,1690.7,526,1640.5,526z M1700,339.6
			c-72.8,3.8-145.3,10.1-145.3,73.3c0,37.7,28.9,60.7,83.7,60.7c23,0,50.2-3.8,61.5-9.2V339.6z M1931,526
			c-41.4,0-85-11.3-110.9-25.1l24.3-55.3c18.4,11.3,57.3,23,84.6,23c38.9,0,64.9-19.3,64.9-49c0-32.2-27.2-44.8-63.2-58.2
			c-47.7-18-100.9-39.8-100.9-106.4c0-58.6,45.6-99.7,124.7-99.7c43.1,0,78.7,10.5,103.8,25.1l-22.6,50.3
			c-15.9-10.1-47.7-20.9-73.3-20.9c-37.7,0-58.6,19.7-58.6,45.6c0,32.2,26.4,43.6,61.5,57c49.4,18.4,104.2,38.9,104.2,108.5
			C2069.2,484.1,2020.2,526,1931,526z M2420.4,338.8l-236.5,33.1c7.1,64.1,49,96.3,108.8,96.3c35.6,0,74.1-8.8,98.4-21.8l20.9,54
			c-27.6,14.7-75.3,25.1-124.3,25.1c-112.2,0-175-72-175-185.5c0-108.9,60.7-185.1,160.3-185.1c92.5,0,147.3,60.7,147.3,156.6
			C2421.2,320.4,2421.2,329.6,2420.4,338.8z M2272.6,208.1c-55.3,0-91.7,42.3-92.9,116.4l172.5-23.9
			C2351.3,238.7,2319.9,208.1,2272.6,208.1z"/>
	</g>
</g>
</svg>
