<?xml version="1.0" encoding="utf-8"?>
<!-- Generator: Adobe Illustrator 25.2.3, SVG Export Plug-In . SVG Version: 6.00 Build 0)  -->
<svg version="1.1" id="Capa_1" xmlns="http://www.w3.org/2000/svg" xmlns:xlink="http://www.w3.org/1999/xlink" x="0px" y="0px"
	 viewBox="0 0 88 88" style="enable-background:new 0 0 88 88;" xml:space="preserve">
<style type="text/css">
	.st0{fill:#2762AD;}
	.st1{fill:#FFFFFF;}
</style>
<circle class="st0" cx="44" cy="44" r="44"/>
<g>
	<g transform="translate(0.000000,1280.000000) scale(0.100000,-0.100000)">
		<path class="st1" d="M253.3,12619.9c-9.9-0.6-12.2-2.6-13.4-12.2c-1.1-8.8-0.8-88.9,0.4-92c0.7-1.7,14-12.4,45.7-36.5l17.4-13.2
			v-93.6l0-93.6l-12-12.6c-20.5-21.5-34-36-38.6-41.6c-4.1-5-3.9-3.7-4.2-30l-0.2-22.8l-11.8-0.2c-13.5-0.2-13.4-0.2-17.9-4.1
			l-2.5-2.1l-0.3-21.4c-0.3-21.1-0.2-29.1,0.7-34.2c0.9-5.6,3.5-8.5,8.2-9c9.1-1.1,56.9-1.3,242.3-1.1l191.8,0.2l2.3,2.4
			c1.5,1.6,2.4,3,2.8,4.2c0.4,1.3,0.6,7.5,0.7,24.5c0.3,32.9-0.2,36.4-5.2,38.8c-2,1-8.6,1.7-17,1.7c-2.4,0-5.5,0.1-7,0.3l-2.8,0.2
			v13.7c0,16.5-0.7,31.7-1.4,33.5c-1.1,2.5-11.9,14.6-37.5,42l-16.4,17.6v93.5l0,93.5l11.1,8.3c35.8,27,50.5,38.6,51.7,41.1
			c1.3,2.5,1.5,12,1.3,49.4c-0.2,35.1-0.6,45.7-1.4,48.9c-0.5,1.7-2.8,4.3-4.6,5c-2.4,0.9-12.1,1.3-40.2,1.5
			c-32.9,0.3-41.7,0-45-1.5c-3.4-1.5-4.8-3.5-6.1-8.2c-0.5-2-0.7-5.5-0.9-16.1l-0.2-13.5l-22.2,0.1l-22.2,0.1l-0.4,15.3
			c-0.3,8.4-0.7,15.9-0.9,16.6c-1.1,3.4-3.5,5-8.9,6.1c-4.4,0.8-26.6,1.3-57.3,1.3c-25.2,0-37.7-0.4-40.6-1.2
			c-2.2-0.7-4.5-2.9-5.6-5.4c-1.6-3.7-2-7.6-2.3-20.5l-0.2-12.3h-22h-22l-0.2,5c-0.2,2.7-0.3,7.7-0.3,11.1c0,7.9-0.6,15.1-1.3,16.9
			c-1.2,2.8-3.7,4.4-8.6,5.3c-1.3,0.2-7.6,0.6-13.8,0.8C300.8,12620.3,260.4,12620.3,253.3,12619.9z M314,12583.8
			c0.3-16.9,1-20.3,4.6-23.3c3.2-2.6,2.9-2.6,31.6-2.8c14.3-0.1,31.4,0,37.8,0.1l11.8,0.3l2.3,2.8c3.5,4.2,3.5,4.5,3.7,21.4
			l0.1,14.4h34.2h34.2l0.2-13.7c0.2-11.4,0.3-14.2,0.9-16.2c1.7-6.2,4.3-8.1,11.3-8.7c5.4-0.5,52-0.5,61.7,0c13,0.7,15.9,2.1,17,8.7
			c0.2,1.3,0.5,8,0.7,14.8c0.1,6.8,0.3,13,0.4,13.7l0.2,1.3h25.4h25.4v-32.1v-32.1H440.2H262.7v32.1v32.1h25.6h25.5L314,12583.8z
			 M560.9,12508.1l33.6-0.2l-15.9-12.1l-15.9-12.1H440.1l-122.7,0l-15.6,12.1l-15.6,12.1l30,0.2
			C359.8,12508.3,521.6,12508.4,560.9,12508.1z M553.5,12373.2v-86.8H440.3H327.1l0.1,86.7c0.1,47.7,0.1,86.8,0.1,86.9
			c0,0,50.9,0.1,113.1,0.1h113.1V12373.2z M572.2,12250.2c12-12.8,18.7-20.2,19.9-22l0.9-1.2H439.6H286.1l2,2.2
			c1.1,1.1,8.7,9.1,16.7,17.6l14.6,15.5l120.4,0.2c106.6,0.2,120.5,0.1,121.2-0.4C561.4,12261.6,566.4,12256.3,572.2,12250.2z
			 M608.7,12187.7l-0.1-15.8l-168.3-0.1l-168.3-0.1v15.9v15.9h168.4h168.4L608.7,12187.7z M641.3,12135.6v-12.5H440.2H239.1v12.5
			v12.5h201.1h201.1V12135.6z"/>
	</g>
</g>
</svg>
