<?xml version="1.0" encoding="utf-8"?>
<!-- Generator: Adobe Illustrator 25.2.3, SVG Export Plug-In . SVG Version: 6.00 Build 0)  -->
<svg version="1.1" id="ac7ac4f5-d871-441c-96dd-895e3759c58a"
	 xmlns="http://www.w3.org/2000/svg" xmlns:xlink="http://www.w3.org/1999/xlink" x="0px" y="0px" viewBox="0 0 870.7 689"
	 style="enable-background:new 0 0 870.7 689;" xml:space="preserve">
<style type="text/css">
	.st0{fill:#3F3D56;}
	.st1{fill:#FF6584;}
	.st2{fill:#E6E6E6;}
	.st3{fill:#0561B3;}
	.st4{opacity:0.2;enable-background:new    ;}
</style>
<polygon class="st0" points="80.9,603 71.4,674 90.4,674 "/>
<polygon class="st0" points="70.9,609 61.4,680 80.4,680 "/>
<polygon class="st0" points="58.9,609 49.4,680 68.4,680 "/>
<polygon class="st0" points="652.9,581 643.4,652 662.4,652 "/>
<polygon class="st0" points="665.9,581 656.4,652 675.4,652 "/>
<polygon class="st0" points="675.9,596 666.4,667 685.4,667 "/>
<polygon class="st0" points="688.9,596 679.4,667 698.4,667 "/>
<polygon class="st0" points="744.9,607 735.4,678 754.4,678 "/>
<polygon class="st0" points="757.9,607 748.4,678 767.4,678 "/>
<polygon class="st0" points="775.9,682 759.8,682 760.4,678 763.7,652.7 763.9,651.9 767.9,622 772.2,654.8 774.4,670.6 "/>
<polygon class="st0" points="788.9,682 772.8,682 774.4,670.6 776.3,655.7 780.9,622 785.7,658 785.7,658 787.1,668.6 "/>
<polygon class="st0" points="802.4,682 785.3,682 787.1,668.6 788.4,658.7 793.9,618 799.7,661.6 800.4,666.6 "/>
<polygon class="st0" points="815.4,682 798.3,682 800.4,666.6 801,662 806.9,618 812.9,662.9 813.2,665.2 "/>
<polygon class="st0" points="823.4,682 810.3,682 812.6,665 812.9,662.9 816.9,633 821.5,667.5 823.4,681.6 "/>
<polygon class="st0" points="836.4,682 823.3,682 823.4,681.6 825.1,668.5 829.9,633 835,671.3 "/>
<circle class="st1" cx="426.9" cy="581" r="95.5"/>
<path class="st2" d="M870.4,688H0.4c0,0,176.6-67.9,436.8-67.1c1.5,0,2.9,0,4.4,0c5.2,0,10.4,0.1,15.7,0.2c4.1,0.1,8.2,0.2,12.4,0.3
	c1.8,0,3.6,0.1,5.4,0.1c0.7,0,1.4,0,2.1,0.1c1.7,0,3.3,0.1,5,0.2c3.1,0.1,6.3,0.2,9.4,0.3c2.8,0.1,5.5,0.2,8.3,0.4
	c1.1,0,2.1,0.1,3.2,0.2c5,0.2,10.1,0.5,15.2,0.8c1.2,0.1,2.4,0.1,3.5,0.2c1.6,0.1,3.3,0.2,4.9,0.3c2.2,0.1,4.3,0.3,6.5,0.4
	c2.8,0.2,5.6,0.4,8.4,0.6c5.9,0.4,11.8,0.9,17.7,1.4c4.4,0.4,8.8,0.8,13.3,1.2c1.9,0.2,3.8,0.4,5.7,0.6c2.9,0.3,5.8,0.6,8.8,0.9
	c1.9,0.2,3.7,0.4,5.6,0.6c2.2,0.2,4.5,0.5,6.7,0.8c2.2,0.3,4.5,0.5,6.8,0.8c2.3,0.3,4.5,0.5,6.8,0.8c2.3,0.3,4.5,0.6,6.8,0.9
	c2.2,0.3,4.5,0.6,6.7,0.9c9.6,1.3,19.2,2.7,29,4.2c1.9,0.3,3.7,0.6,5.6,0.9c1.9,0.3,3.9,0.6,5.8,0.9c2.7,0.4,5.4,0.9,8.1,1.3
	c2.3,0.4,4.7,0.8,7,1.2c2.1,0.4,4.2,0.7,6.4,1.1c0.2,0,0.4,0.1,0.7,0.1c2.3,0.4,4.7,0.8,7,1.3c2.3,0.4,4.7,0.9,7.1,1.3
	c2.4,0.4,4.7,0.9,7.1,1.3c2.4,0.5,4.7,0.9,7.1,1.4c1.8,0.4,3.7,0.7,5.5,1.1c0.9,0.2,1.8,0.4,2.8,0.6c2,0.4,4,0.8,6,1.2
	c2.4,0.5,4.8,1,7.2,1.5c0.3,0.1,0.5,0.1,0.8,0.2c3.7,0.8,7.4,1.6,11.1,2.4c0.5,0.1,1,0.2,1.5,0.3c1.9,0.4,3.9,0.9,5.8,1.3
	c1.9,0.4,3.9,0.9,5.8,1.3c0.1,0,0.2,0,0.2,0c2.8,0.6,5.5,1.3,8.2,2c1.4,0.3,2.7,0.7,4.1,1c1.9,0.5,3.8,0.9,5.6,1.4
	c1.2,0.3,2.5,0.6,3.7,0.9c0.9,0.2,1.8,0.4,2.7,0.7c1.9,0.5,3.8,1,5.8,1.5c1.8,0.5,3.6,0.9,5.4,1.4c0.1,0,0.1,0,0.2,0
	c0.4,0.1,0.8,0.2,1.3,0.3c1.3,0.3,2.6,0.7,3.9,1c1.3,0.4,2.7,0.7,4.1,1.1c1.2,0.3,2.4,0.6,3.6,1c0,0,0.1,0,0.1,0
	c0.2,0,0.3,0.1,0.5,0.1c1.4,0.4,2.8,0.7,4.1,1.1c1.4,0.4,2.8,0.8,4.2,1.2c0.1,0,0.3,0.1,0.4,0.1c1.1,0.3,2.1,0.6,3.2,0.9
	c1.6,0.5,0,0,0,0c0.6,0.2,1.2,0.3,1.8,0.5c1.6,0.5,3.3,0.9,4.9,1.4c1,0.3,2.1,0.6,3.2,0.9c2.9,0.8,5.9,1.7,8.8,2.6s5.9,1.8,8.8,2.6
	c1.8,0.5,3.5,1.1,5.3,1.6c1.7,0.5,3.3,1,5,1.5C865.4,686.4,867.9,687.2,870.4,688z"/>
<path class="st0" d="M870.1,689c-246.2-77.9-469.5-73.8-613.5-56.6C100.7,651,1.7,688.6,0.7,688.9L0,687.1
	c1-0.4,100.2-38,256.4-56.7c91.9-11,184.6-13.3,276.9-7.1c114.6,7.8,227.9,29.2,337.4,63.7L870.1,689z"/>
<circle class="st3" cx="176.6" cy="194.3" r="128.8"/>
<path class="st4" d="M270.2,109.9c27.5,64.2-2.4,138.6-66.6,166c-50,21.4-108,8.4-144.2-32.2c27.5,64.2,101.8,94.1,166,66.6
	c64.2-27.5,94.1-101.8,66.6-166C286.7,131.7,279.3,120.1,270.2,109.9z"/>
<path class="st0" d="M316.5,666.9c0,0,0.7-14.5,14.8-12.8"/>
<circle class="st3" cx="312.5" cy="646.1" r="7.1"/>
<rect x="311.4" y="658" class="st0" width="2" height="14"/>
<path class="st0" d="M574.5,669.9c0,0,0.7-14.5,14.8-12.8"/>
<circle class="st3" cx="570.5" cy="649.1" r="7.1"/>
<rect x="569.4" y="661" class="st0" width="2" height="14"/>
<path class="st0" d="M149.5,644.9c0,0,0.7-14.5,14.8-12.8"/>
<circle class="st3" cx="145.5" cy="624.1" r="7.1"/>
<rect x="144.4" y="636" class="st0" width="2" height="14"/>
<path class="st0" d="M258.5,625.9c0,0,0.7-14.5,14.8-12.8"/>
<ellipse transform="matrix(0.1602 -0.9871 0.9871 0.1602 -383.5124 759.3729)" class="st3" cx="254.5" cy="605.1" rx="7.1" ry="7.1"/>
<rect x="253.4" y="617" class="st0" width="2" height="14"/>
<path class="st0" d="M531.5,652.9c0,0,0.7-14.5,14.8-12.8"/>
<circle class="st3" cx="527.5" cy="632.1" r="7.1"/>
<rect x="526.4" y="644" class="st0" width="2" height="14"/>
</svg>
